HIERARCHY
ROOT Hips
{
	OFFSET 0.00000 0.00000 0.00000
	CHANNELS 6 Xposition Yposition Zposition Zrotation Yrotation Xrotation 
	JOINT RightUpLegDummy
	{
		OFFSET 0 0 0
		CHANNELS 3 Zrotation Yrotation Xrotation
		JOINT RightUpLeg
		{
			OFFSET -3.52197 -3.41223 0.04002
			CHANNELS 3 Zrotation Yrotation Xrotation
			JOINT RightLeg
			{
				OFFSET 0.00006 -17.42390 1.60435
				CHANNELS 3 Zrotation Yrotation Xrotation
				JOINT RightFoot
				{
					OFFSET 0.06154 -16.50078 -1.63900
					CHANNELS 3 Zrotation Yrotation Xrotation
					JOINT RightToes
					{
						OFFSET 0.00298 -1.73825 3.34613
						CHANNELS 3 Zrotation Yrotation Xrotation
						End Site
						{
							OFFSET 0.00480 -0.05416 3.85043
						}
					}
				}
			}
		}
	}
	JOINT SpineDummy
	{
		OFFSET 0 0 0
		CHANNELS 3 Zrotation Yrotation Xrotation
		JOINT Spine
		{
			OFFSET 0.00000 4.68130 0.00000
			CHANNELS 3 Zrotation Yrotation Xrotation
			JOINT Spine1
			{
				OFFSET -0.00000 10.10138 0.05002
				CHANNELS 3 Zrotation Yrotation Xrotation
				JOINT HEadDummy
				{
					OFFSET 0 0 0
					CHANNELS 3 Zrotation Yrotation Xrotation
					JOINT Head
					{
						OFFSET -0.00000 3.43865 0.00438
						CHANNELS 3 Zrotation Yrotation Xrotation
						End Site
						{
							OFFSET -0.11417 5.02924 0.98962
						}
					}
				}
				JOINT LeftShoulder1Dummy
				{
					OFFSET 0 0 0
					CHANNELS 3 Zrotation Yrotation Xrotation
					JOINT LeftShoulder1
					{
						OFFSET 3.53937 -0.14262 -0.08662
						CHANNELS 3 Zrotation Yrotation Xrotation
						JOINT LeftArm
						{
							OFFSET 4.04833 -0.00133 0.12681
							CHANNELS 3 Zrotation Yrotation Xrotation
							JOINT LeftForeArm
							{
								OFFSET 10.33880 -0.01036 -0.55515
								CHANNELS 3 Zrotation Yrotation Xrotation
								JOINT LeftHand
								{
									OFFSET 8.69677 0.07543 0.40060
									CHANNELS 3 Zrotation Yrotation Xrotation
									End Site
									{
										OFFSET 5.28377 -0.21905 0.59205
									}
								}
							}
						}
					}
				}
				JOINT RightShoulderDummy
				{
					OFFSET 0 0 0
					CHANNELS 3 Zrotation Yrotation Xrotation
					JOINT RightShoulder
					{
						OFFSET -3.53937 -0.14262 -0.08660
						CHANNELS 3 Zrotation Yrotation Xrotation
						JOINT RightArm
						{
							OFFSET -4.04833 -0.00133 0.12683
							CHANNELS 3 Zrotation Yrotation Xrotation
							JOINT RightForeArm
							{
								OFFSET -10.37987 -0.01039 -0.55511
								CHANNELS 3 Zrotation Yrotation Xrotation
								JOINT RightHand
								{
									OFFSET -8.67398 0.07538 0.40058
									CHANNELS 3 Zrotation Yrotation Xrotation
									End Site
									{
										OFFSET -5.24810 -0.21916 0.59204
									}
								}
							}
						}
					}
				}
			}
		}
	}
	JOINT LeftUpLegDummy
	{
		OFFSET 0 0 0
		CHANNELS 3 Zrotation Yrotation Xrotation
		JOINT LeftUpLeg
		{
			OFFSET 3.52197 -3.41223 0.04002
			CHANNELS 3 Zrotation Yrotation Xrotation
			JOINT LeftLeg
			{
				OFFSET -0.00012 -17.42399 1.60337
				CHANNELS 3 Zrotation Yrotation Xrotation
				JOINT LeftFoot
				{
					OFFSET -0.09972 -16.50070 -1.63802
					CHANNELS 3 Zrotation Yrotation Xrotation
					JOINT LeftToes
					{
						OFFSET -0.01575 -1.73823 3.34611
						CHANNELS 3 Zrotation Yrotation Xrotation
						End Site
						{
							OFFSET 0.03150 -0.01868 3.85031
						}
					}
				}
			}
		}
	}
}
MOTION
Frames: 19
Frame Time: 0.033333
-71.3065 40.6903 -2.2389 8.2920 85.3798 8.6930 0.0000 0.0000 0.0000 -0.6402 -6.1639 -3.6381 -1.7989 -8.9344 12.0718 3.1198 -0.1219 -7.9528 0.0000 0.0000 -0.0000 0.0000 0.0000 0.0000 -0.8276 -1.6307 -12.0138 3.8121 -2.7605 22.9200 0.0000 0.0000 0.0000 -2.7047 6.8400 -7.2881 0.0000 0.0000 0.0000 -17.7643 -2.5377 1.4732 -62.7016 -7.6814 -18.7942 -12.3765 1.0447 41.6641 16.9152 -4.2673 -1.3786 0.0000 0.0000 0.0000 18.5324 1.2820 1.2015 55.9545 11.4516 -10.4539 10.3916 8.9031 30.0755 -4.7166 1.9133 -0.2798 0.0000 0.0000 0.0000 -3.0232 3.1264 -7.0579 3.4151 9.4536 14.2763 0.0389 0.0467 -7.8102 -0.0000 0.0000 -0.0000
-71.2256 40.7091 -2.2675 9.6835 85.2186 10.0084 0.0000 0.0000 0.0000 -0.8500 -6.2364 -3.3815 -1.7781 -8.7124 11.9298 3.2199 -0.1243 -7.9763 0.0000 0.0000 -0.0000 0.0000 0.0000 0.0000 -1.6054 -1.6229 -12.0050 4.5773 -2.9752 22.7635 0.0000 0.0000 0.0000 -2.8179 7.0356 -7.5239 0.0000 0.0000 0.0000 -18.3531 -2.6469 1.5335 -62.3776 -7.3576 -18.9703 -12.3767 1.0994 41.7564 16.0555 -4.2979 -1.3097 0.0000 0.0000 0.0000 18.2104 1.2729 1.1850 55.9407 11.0594 -11.3133 10.3348 8.5889 31.1139 -4.5415 2.1003 -0.2745 0.0000 0.0000 0.0000 -3.1446 2.9257 -6.5292 3.2786 9.8337 13.6646 0.0716 0.0445 -7.6054 -0.0000 0.0000 -0.0000
-71.0684 40.7440 -2.3205 11.7859 84.8347 12.0027 0.0000 0.0000 0.0000 -1.1636 -6.2328 -2.9628 -1.8831 -8.3271 11.7042 3.4183 -0.1293 -8.0083 0.0000 0.0000 -0.0000 0.0000 0.0000 0.0000 -2.5246 -1.5369 -12.1184 5.2780 -3.0582 22.5385 0.0000 0.0000 0.0000 -2.5451 7.6991 -8.1447 0.0000 0.0000 0.0000 -18.8465 -2.8848 1.6216 -62.0556 -6.9656 -19.3340 -12.2836 1.3479 42.1309 15.2457 -4.4665 -1.2619 0.0000 0.0000 0.0000 18.1211 1.1766 1.1572 55.6971 10.4891 -12.8744 10.2856 7.8436 32.6507 -4.5407 2.2750 -0.2799 0.0000 0.0000 0.0000 -3.3600 2.7053 -5.6242 2.9866 10.5203 12.6200 0.2249 0.0357 -7.2434 -0.0000 0.0000 -0.0000
-70.9141 40.7743 -2.3756 13.3004 84.4627 13.5042 0.0000 0.0000 0.0000 -1.3553 -6.0414 -2.6914 -2.1938 -8.1181 11.5483 3.6577 -0.1356 -8.0327 0.0000 0.0000 -0.0000 0.0000 0.0000 0.0000 -2.6762 -1.4852 -12.5130 4.9397 -2.8488 22.5435 0.0000 0.0000 0.0000 -2.4864 6.9278 -7.7196 0.0000 0.0000 0.0000 -18.6371 -2.9329 1.6215 -62.0359 -7.0587 -19.7549 -12.0153 1.8263 42.7316 15.4219 -4.5967 -1.2935 0.0000 0.0000 0.0000 18.3965 1.1401 1.1601 55.5665 10.2114 -14.2925 10.2163 6.9864 33.6601 -4.7664 2.2254 -0.2931 0.0000 0.0000 0.0000 -3.5621 2.4832 -4.9249 2.7058 11.2187 11.7467 0.5094 0.0219 -6.9153 -0.0000 0.0000 -0.0000
-70.7945 40.7960 -2.4281 14.0078 84.2745 14.3408 0.0000 0.0000 0.0000 -1.4405 -5.8305 -2.6007 -2.4636 -8.1214 11.3814 3.8501 -0.1417 -8.0140 0.0000 0.0000 -0.0000 0.0000 0.0000 0.0000 -2.2800 -1.5665 -13.1124 4.0308 -2.6290 22.7227 0.0000 0.0000 0.0000 -2.4036 7.2998 -7.6733 0.0000 0.0000 0.0000 -18.3104 -2.7271 1.5508 -61.9356 -7.6012 -20.1353 -11.7030 2.1908 42.7121 15.7729 -4.2819 -1.2837 0.0000 0.0000 0.0000 18.4471 1.2819 1.1976 55.9993 10.2098 -15.0385 10.0919 6.4756 34.1534 -4.7846 2.1447 -0.2917 0.0000 0.0000 0.0000 -3.6942 2.2317 -4.6037 2.4941 11.7183 11.1821 0.8671 0.0049 -6.6755 -0.0000 0.0000 -0.0000
-70.6780 40.8184 -2.4844 14.3795 84.1775 14.9002 0.0000 0.0000 0.0000 -1.5915 -5.8115 -2.4930 -2.4529 -8.0566 11.0752 3.9540 -0.1463 -7.9539 0.0000 0.0000 -0.0000 0.0000 0.0000 0.0000 -1.9775 -1.6596 -13.7065 3.3770 -2.5191 22.7653 0.0000 0.0000 0.0000 -2.5217 7.8028 -7.5707 0.0000 0.0000 0.0000 -18.3417 -2.5034 1.4969 -61.4861 -8.2751 -20.4313 -11.5255 2.2237 41.4297 15.4332 -3.4526 -1.1507 0.0000 0.0000 0.0000 18.2424 1.4275 1.2247 56.6433 10.1195 -14.9460 10.0405 6.5705 34.3657 -4.4377 2.2022 -0.2709 0.0000 0.0000 0.0000 -3.7658 1.9637 -4.3583 2.2246 12.1068 10.6241 1.2257 -0.0132 -6.4693 -0.0000 0.0000 -0.0000
-70.5371 40.8452 -2.5454 14.9945 83.9729 15.6279 0.0000 0.0000 0.0000 -1.8777 -5.9449 -2.2388 -2.2883 -7.7586 10.6934 4.0319 -0.1484 -7.9077 0.0000 0.0000 -0.0000 0.0000 0.0000 0.0000 -1.9057 -1.5869 -14.1037 3.0116 -2.3111 22.4984 0.0000 0.0000 0.0000 -2.7101 7.8313 -7.1348 0.0000 0.0000 0.0000 -18.3137 -2.2777 1.4394 -61.0606 -9.0709 -20.5503 -11.4838 2.1631 39.6321 15.1342 -2.5825 -1.0192 0.0000 0.0000 0.0000 18.3608 1.3667 1.2149 56.8457 9.7833 -13.9175 10.1787 7.2143 33.8975 -4.0810 2.2533 -0.2490 0.0000 0.0000 0.0000 -3.8493 1.6638 -3.8684 1.8308 12.6789 9.8303 1.5526 -0.0312 -6.2619 -0.0000 0.0000 -0.0000
-70.3931 40.8708 -2.6039 15.8260 83.6679 16.4763 0.0000 0.0000 0.0000 -2.1658 -6.0121 -1.9071 -2.2597 -7.4510 10.3328 4.1468 -0.1537 -7.8774 0.0000 0.0000 -0.0000 0.0000 0.0000 0.0000 -1.8777 -1.4107 -14.2540 2.6701 -1.9895 22.0356 0.0000 0.0000 0.0000 -2.8947 7.8550 -6.6227 0.0000 0.0000 0.0000 -17.9773 -1.9074 1.3304 -60.9470 -10.0463 -20.4063 -11.4826 2.1171 38.6316 15.8393 -2.2525 -1.0265 0.0000 0.0000 0.0000 18.7412 1.2010 1.1903 56.8008 9.4547 -11.9604 10.3674 8.2157 32.3756 -3.9785 2.1761 -0.2402 0.0000 0.0000 0.0000 -3.9811 1.2399 -3.1954 1.4369 13.5590 8.8967 1.8656 -0.0495 -6.0580 -0.0000 0.0000 -0.0000
-70.2756 40.8947 -2.6541 16.4227 83.4924 17.1120 0.0000 0.0000 0.0000 -2.3044 -5.9215 -1.5924 -2.3973 -7.4714 9.8773 4.2529 -0.1617 -7.7650 0.0000 0.0000 -0.0000 0.0000 0.0000 0.0000 -1.9420 -1.3687 -14.3408 2.5076 -1.8805 21.6366 0.0000 0.0000 0.0000 -3.1866 8.2208 -6.3629 0.0000 0.0000 0.0000 -17.8945 -1.6927 1.2737 -60.7407 -10.8586 -20.1370 -11.5190 1.6506 38.3261 16.6882 -2.4581 -1.1107 0.0000 0.0000 0.0000 18.7036 1.1690 1.1805 57.1828 9.4052 -9.4207 10.3685 9.4157 30.2207 -3.9748 2.1118 -0.2383 0.0000 0.0000 0.0000 -4.0957 0.6618 -2.6141 1.1410 14.4639 7.9948 2.1871 -0.0700 -5.8326 -0.0000 0.0000 -0.0000
-70.1777 40.9225 -2.6957 16.8706 83.5839 17.7077 0.0000 0.0000 0.0000 -2.3369 -5.8077 -1.2943 -2.4893 -7.8215 9.2152 4.2719 -0.1705 -7.5228 0.0000 0.0000 -0.0000 0.0000 0.0000 0.0000 -2.1688 -1.5214 -14.6191 2.5621 -2.0575 21.4619 0.0000 0.0000 0.0000 -3.4969 8.4097 -6.2696 0.0000 0.0000 0.0000 -18.2801 -2.0915 1.3915 -60.1216 -11.1979 -19.9654 -11.6362 0.4511 37.5061 16.3171 -2.7930 -1.1303 0.0000 0.0000 0.0000 18.3251 1.2771 1.1911 57.9041 9.5768 -6.4188 10.1069 10.8072 27.6385 -3.9610 2.1251 -0.2378 0.0000 0.0000 0.0000 -4.1342 0.0121 -2.1983 0.8567 15.0343 7.0810 2.4992 -0.0934 -5.5343 -0.0000 0.0000 -0.0000
-70.0794 40.9552 -2.7304 17.8952 83.7763 18.9223 0.0000 0.0000 0.0000 -2.4594 -5.8390 -1.0047 -2.4152 -8.1315 8.5282 4.2286 -0.1779 -7.2575 0.0000 0.0000 -0.0000 0.0000 0.0000 0.0000 -2.3939 -1.6804 -15.0490 2.4332 -2.1685 21.4050 0.0000 0.0000 0.0000 -3.5510 8.1003 -6.1680 0.0000 0.0000 0.0000 -18.4370 -2.7769 1.5702 -59.5630 -11.3777 -19.7682 -11.8310 -1.0842 35.9749 15.0993 -3.0664 -1.0768 0.0000 0.0000 0.0000 18.3892 1.3639 1.2156 58.3213 9.7249 -2.5232 9.5636 12.5071 23.9909 -4.1215 2.0511 -0.2461 0.0000 0.0000 0.0000 -4.1868 -0.6223 -1.7480 0.4789 15.3277 5.9651 2.7700 -0.1194 -5.1310 -0.0000 0.0000 -0.0000
-69.9846 40.9881 -2.7606 19.6602 83.8359 20.8311 0.0000 0.0000 0.0000 -2.7346 -5.9974 -0.7756 -2.2728 -8.1497 8.0433 4.2207 -0.1841 -7.0619 0.0000 0.0000 -0.0000 0.0000 0.0000 0.0000 -2.5783 -1.7180 -15.3504 2.0899 -2.0604 21.2703 0.0000 0.0000 0.0000 -3.3884 7.8271 -6.1920 0.0000 0.0000 0.0000 -17.9947 -2.8942 1.5740 -59.5468 -11.9218 -19.0356 -12.1068 -2.4314 34.6668 14.4712 -3.2803 -1.0558 0.0000 0.0000 0.0000 18.8756 1.3789 1.2413 58.4605 9.7938 2.2580 8.6568 14.4435 19.2703 -4.4812 1.8794 -0.2640 0.0000 0.0000 0.0000 -4.3670 -1.1424 -1.1418 0.0612 15.6309 4.6122 2.9996 -0.1479 -4.6328 -0.0000 0.0000 -0.0000
-69.9116 41.0191 -2.7872 21.1375 83.8350 22.4822 0.0000 0.0000 0.0000 -2.9461 -6.0701 -0.6583 -2.2147 -8.1471 7.6332 4.2917 -0.1940 -6.8477 0.0000 0.0000 -0.0000 0.0000 0.0000 0.0000 -2.8995 -1.7452 -15.5087 2.0312 -2.0305 21.1153 0.0000 0.0000 0.0000 -3.3140 7.9612 -6.4681 0.0000 0.0000 0.0000 -17.4867 -2.2428 1.3867 -59.8925 -12.8469 -17.3077 -12.4058 -3.6934 33.6269 14.7701 -3.3285 -1.0841 0.0000 0.0000 0.0000 18.9487 1.3737 1.2433 58.9157 9.9707 6.9880 7.4576 16.2662 14.7478 -4.7158 1.8550 -0.2779 0.0000 0.0000 0.0000 -4.5693 -1.3849 -0.5940 -0.2964 15.8738 3.2643 3.1996 -0.1775 -4.1076 -0.0000 0.0000 -0.0000
-69.8614 41.0480 -2.8106 21.5914 84.0347 23.2748 0.0000 0.0000 0.0000 -2.8742 -5.8997 -0.6461 -2.2866 -8.5465 7.0414 4.4126 -0.2105 -6.5116 0.0000 0.0000 -0.0000 0.0000 0.0000 0.0000 -3.3276 -1.8805 -15.8023 2.3690 -2.2610 21.1295 0.0000 0.0000 0.0000 -3.3609 8.0460 -6.7633 0.0000 0.0000 0.0000 -17.3199 -1.5370 1.2087 -60.2242 -13.7522 -15.0618 -12.5483 -5.0628 32.2510 14.9765 -3.2291 -1.0877 0.0000 0.0000 0.0000 18.4881 1.3459 1.2155 59.6735 10.3247 10.9689 6.2166 17.7489 11.1598 -4.6740 2.0134 -0.2803 0.0000 0.0000 0.0000 -4.5755 -1.3372 -0.3901 -0.5964 15.7683 2.2155 3.3486 -0.2025 -3.6654 -0.0000 0.0000 -0.0000
-69.8174 41.0703 -2.8343 21.6025 84.3963 23.7314 0.0000 0.0000 0.0000 -2.6578 -5.6250 -0.7166 -2.3981 -9.1961 6.4072 4.5388 -0.2280 -6.1710 0.0000 0.0000 -0.0000 0.0000 0.0000 0.0000 -3.6455 -2.0199 -16.1802 2.6953 -2.5057 21.1382 0.0000 0.0000 0.0000 -3.3130 7.7128 -6.8366 0.0000 0.0000 0.0000 -17.2990 -1.3678 1.1674 -60.4583 -14.3828 -13.1777 -12.5043 -6.2558 30.6397 14.7724 -3.1576 -1.0637 0.0000 0.0000 0.0000 18.2201 1.2871 1.1889 60.1155 10.6020 14.3050 5.0765 18.9572 7.9422 -4.6287 2.0549 -0.2787 0.0000 0.0000 0.0000 -4.4388 -1.2062 -0.4509 -0.8697 15.3876 1.4709 3.4311 -0.2195 -3.3486 -0.0000 0.0000 -0.0000
-69.7723 41.0817 -2.8651 22.1664 84.5680 24.6288 0.0000 0.0000 0.0000 -2.6495 -5.5473 -0.8546 -2.4182 -9.4778 6.1224 4.6314 -0.2380 -6.0286 0.0000 0.0000 -0.0000 0.0000 0.0000 0.0000 -3.8872 -2.0007 -16.2170 2.8883 -2.5291 20.7854 0.0000 0.0000 0.0000 -3.1746 7.3811 -6.8676 0.0000 0.0000 0.0000 -17.3900 -1.5124 1.2062 -60.5534 -14.7853 -11.8736 -12.4633 -6.9735 29.3527 14.6544 -3.1821 -1.0578 0.0000 0.0000 0.0000 18.3254 1.2798 1.1918 60.1295 10.6144 16.8936 4.1372 19.9048 5.0796 -4.7717 1.8657 -0.2817 0.0000 0.0000 0.0000 -4.4589 -1.2115 -0.4121 -1.0817 15.1821 0.7682 3.5034 -0.2349 -3.0679 -0.0000 0.0000 -0.0000
-69.7377 41.0846 -2.9026 23.2681 84.4635 25.8596 0.0000 0.0000 0.0000 -2.9008 -5.7267 -1.0086 -2.3239 -9.2494 6.2211 4.6689 -0.2424 -6.0735 0.0000 0.0000 -0.0000 0.0000 0.0000 0.0000 -4.1747 -1.8916 -15.8819 3.1171 -2.4569 20.2901 0.0000 0.0000 0.0000 -3.1035 7.5076 -7.1626 0.0000 0.0000 0.0000 -17.7291 -1.4796 1.2138 -60.4796 -15.1395 -10.7773 -12.5165 -7.3420 28.4426 14.7384 -3.1889 -1.0649 0.0000 0.0000 0.0000 18.2181 1.3856 1.2131 60.2824 10.6412 18.2500 3.5940 20.4247 3.6778 -4.9058 1.7713 -0.2869 0.0000 0.0000 0.0000 -4.6995 -1.4176 -0.1857 -1.1837 15.3557 0.0861 3.6254 -0.2544 -2.7865 -0.0000 0.0000 -0.0000
-69.7254 41.0843 -2.9349 24.0606 84.4644 26.6766 0.0000 0.0000 0.0000 -3.0728 -5.8897 -1.0589 -2.2317 -9.1221 6.3024 4.6788 -0.2446 -6.0993 0.0000 0.0000 -0.0000 0.0000 0.0000 0.0000 -4.2940 -1.9093 -15.6727 3.2000 -2.4978 20.3072 0.0000 0.0000 0.0000 -3.0550 7.8021 -7.6410 0.0000 0.0000 0.0000 -17.9413 -1.1746 1.1490 -60.5452 -15.6009 -10.0435 -12.5802 -7.4765 27.9660 14.6751 -3.1609 -1.0568 0.0000 0.0000 0.0000 17.7378 1.5464 1.2306 60.8242 11.0557 18.4302 3.5133 20.4660 4.0908 -4.8427 2.0148 -0.2911 0.0000 0.0000 0.0000 -4.8595 -1.5838 -0.0679 -1.1874 15.4121 -0.2104 3.7530 -0.2698 -2.6430 -0.0000 0.0000 -0.0000
-69.7315 41.0849 -2.9521 24.1611 84.8154 26.7826 0.0000 0.0000 0.0000 -2.9365 -5.8171 -0.9363 -2.2563 -9.5165 6.1224 4.7108 -0.2482 -5.9982 0.0000 0.0000 -0.0000 0.0000 0.0000 0.0000 -4.0389 -2.0591 -15.7679 2.8852 -2.5941 20.8728 0.0000 0.0000 0.0000 -2.9167 7.6731 -7.9411 0.0000 0.0000 0.0000 -17.6267 -0.9106 1.0712 -61.0069 -16.0848 -10.1741 -12.6136 -7.2476 28.3759 14.5447 -3.2319 -1.0555 0.0000 0.0000 0.0000 17.4459 1.6384 1.2392 61.2985 11.6804 18.2100 3.6677 20.2900 5.0143 -4.6753 2.3247 -0.2904 0.0000 0.0000 0.0000 -4.7283 -1.5153 -0.2087 -1.1521 14.9556 0.0311 3.7977 -0.2747 -2.7256 -0.0000 0.0000 -0.0000
